<svg width="1383" height="445" viewBox="0 0 1383 445" fill="none" xmlns="http://www.w3.org/2000/svg">
<g clip-path="url(#clip0_1763_22)">
<path fill-rule="evenodd" clip-rule="evenodd" d="M790 334.508L597 446L404 334.508V111.472L597 0L790 111.472V334.508Z" fill="white"/>
<path d="M412 113.178L496.623 162L594.885 113.254L595 9L412 113.178Z" fill="black"/>
<path d="M412 117L595 222.189V326.42L504.738 273.845H502.826L501.879 274.802V380L412 328.391V117Z" fill="black"/>
<path d="M595 330.164V435L505 382.357V278L595 330.164Z" fill="black"/>
<path d="M598 329.94V435L782 328.511V223L598 329.94Z" fill="black"/>
<path d="M782 219.577V115.56L691.375 64V168.055L690.034 169.935H689.037L598 117.459V220.56L689.506 274L782 219.577Z" fill="black"/>
<path d="M598 114.005V9L688 61.3784V165" fill="black"/>
</g>
<path d="M21.12 142.888V165.416H41.6V179.624H21.12V217H5.376V128.68H44.8V142.888H21.12ZM64.524 215.08C60.94 213.032 57.996 210.216 55.948 206.504C53.9 202.92 52.876 198.696 52.876 193.832V128.68H68.62V193.448C68.62 197.032 69.26 199.72 70.668 201.384C71.948 203.048 74.124 203.816 76.94 203.816C82.444 203.816 85.26 200.36 85.26 193.448V128.68H101.004V193.832C101.004 198.696 99.98 202.92 97.932 206.504C95.884 210.216 92.94 213.032 89.356 215.08C85.644 217.128 81.548 218.024 76.94 218.024C72.332 218.024 68.108 217.128 64.524 215.08ZM153.095 142.888H137.863V217H122.247V142.888H106.887V128.68H153.095V142.888ZM170.649 215.08C167.065 213.032 164.121 210.216 162.073 206.504C160.025 202.92 159.001 198.696 159.001 193.832V128.68H174.745V193.448C174.745 197.032 175.385 199.72 176.793 201.384C178.073 203.048 180.249 203.816 183.065 203.816C188.569 203.816 191.385 200.36 191.385 193.448V128.68H207.129V193.832C207.129 198.696 206.105 202.92 204.057 206.504C202.009 210.216 199.065 213.032 195.481 215.08C191.769 217.128 187.673 218.024 183.065 218.024C178.457 218.024 174.233 217.128 170.649 215.08ZM241.172 181.544H233.62V217H217.876V128.68H241.94C250.644 128.68 256.788 130.856 260.372 134.952C263.956 139.176 265.876 145.832 265.876 155.048C265.876 160.936 264.98 165.928 263.444 169.768C261.78 173.736 259.092 176.68 255.508 178.6L268.692 217H252.308L241.172 181.544ZM233.62 167.464H241.812C244.884 167.464 247.06 166.44 248.34 164.392C249.492 162.344 250.132 159.144 250.132 155.048C250.132 150.952 249.492 147.88 248.34 145.832C247.188 143.784 245.012 142.76 241.812 142.76H233.62V167.464ZM277.263 128.68H292.879V217H277.263V128.68ZM345.47 142.888H330.238V217H314.622V142.888H299.262V128.68H345.47V142.888ZM380.432 182.568V217H364.688V182.312L346.768 128.68H364.048L372.496 162.472L380.944 128.68H398.352L380.432 182.568Z" fill="white"/>
<path d="M9.976 306.06C5.752 301.44 3.508 294.708 3.508 285.996H18.82C18.952 290.484 19.876 293.784 21.46 295.896C23.044 298.008 25.552 299.064 28.72 299.064C31.888 299.064 34.132 298.14 35.584 296.16C37.036 294.312 37.828 291.144 37.828 286.92C37.828 283.488 36.904 280.716 35.32 278.604C33.736 276.492 30.964 274.644 27.136 272.796L20.932 270.024C14.992 267.384 10.768 264.216 8.128 260.256C5.488 256.428 4.3 251.28 4.3 244.68C4.3 237.024 6.412 230.952 10.9 226.332C15.388 221.844 21.328 219.468 28.984 219.468C36.376 219.468 42.184 221.844 46.276 226.332C50.368 230.82 52.612 237.42 52.876 245.868H37.96C37.828 241.776 37.036 238.74 35.716 236.628C34.396 234.516 32.152 233.46 28.984 233.46C23.044 233.46 20.14 237.024 20.14 243.888C20.14 247.056 20.8 249.696 22.252 251.544C23.704 253.392 26.212 255.108 29.644 256.56L35.584 259.2C41.92 262.104 46.408 265.536 49.312 269.76C52.216 273.984 53.668 279.66 53.668 286.656C53.668 295.104 51.424 301.704 47.068 306.192C42.58 310.812 36.376 313.056 28.324 313.056C20.272 313.056 14.2 310.812 9.976 306.06ZM92.7111 276.492V312H76.4751V276.228L57.9951 220.92H75.8151L84.5271 255.768L93.2391 220.92H111.191L92.7111 276.492ZM120.964 306.06C116.74 301.44 114.496 294.708 114.496 285.996H129.808C129.94 290.484 130.864 293.784 132.448 295.896C134.032 298.008 136.54 299.064 139.708 299.064C142.876 299.064 145.12 298.14 146.572 296.16C148.024 294.312 148.816 291.144 148.816 286.92C148.816 283.488 147.892 280.716 146.308 278.604C144.724 276.492 141.952 274.644 138.124 272.796L131.92 270.024C125.98 267.384 121.756 264.216 119.116 260.256C116.476 256.428 115.288 251.28 115.288 244.68C115.288 237.024 117.4 230.952 121.888 226.332C126.376 221.844 132.316 219.468 139.972 219.468C147.364 219.468 153.172 221.844 157.264 226.332C161.356 230.82 163.6 237.42 163.864 245.868H148.948C148.816 241.776 148.024 238.74 146.704 236.628C145.384 234.516 143.14 233.46 139.972 233.46C134.032 233.46 131.128 237.024 131.128 243.888C131.128 247.056 131.788 249.696 133.24 251.544C134.692 253.392 137.2 255.108 140.632 256.56L146.572 259.2C152.908 262.104 157.396 265.536 160.3 269.76C163.204 273.984 164.656 279.66 164.656 286.656C164.656 295.104 162.412 301.704 158.056 306.192C153.568 310.812 147.364 313.056 139.312 313.056C131.26 313.056 125.188 310.812 120.964 306.06ZM216.371 235.572H200.663V312H184.559V235.572H168.719V220.92H216.371V235.572ZM238.566 235.572V258.408H259.686V272.928H238.566V297.48H263.118V312H222.462V220.92H263.118V235.572H238.566ZM336.246 220.92V312H320.01V258.672L308.394 294.312H299.682L288.198 259.068V312H271.962V220.92H288.198L304.038 268.968L320.01 220.92H336.246ZM350.804 306.06C346.58 301.44 344.336 294.708 344.336 285.996H359.648C359.78 290.484 360.704 293.784 362.288 295.896C363.872 298.008 366.38 299.064 369.548 299.064C372.716 299.064 374.96 298.14 376.412 296.16C377.864 294.312 378.656 291.144 378.656 286.92C378.656 283.488 377.732 280.716 376.148 278.604C374.564 276.492 371.792 274.644 367.964 272.796L361.76 270.024C355.82 267.384 351.596 264.216 348.956 260.256C346.316 256.428 345.128 251.28 345.128 244.68C345.128 237.024 347.24 230.952 351.728 226.332C356.216 221.844 362.156 219.468 369.812 219.468C377.204 219.468 383.012 221.844 387.104 226.332C391.196 230.82 393.44 237.42 393.704 245.868H378.788C378.656 241.776 377.864 238.74 376.544 236.628C375.224 234.516 372.98 233.46 369.812 233.46C363.872 233.46 360.968 237.024 360.968 243.888C360.968 247.056 361.628 249.696 363.08 251.544C364.532 253.392 367.04 255.108 370.472 256.56L376.412 259.2C382.748 262.104 387.236 265.536 390.14 269.76C393.044 273.984 394.496 279.66 394.496 286.656C394.496 295.104 392.252 301.704 387.896 306.192C383.408 310.812 377.204 313.056 369.152 313.056C361.1 313.056 355.028 310.812 350.804 306.06Z" fill="white"/>
<path d="M816.04 296.248C807.08 287.544 802.728 275 802.728 258.36V178.744C802.728 162.104 807.336 149.56 816.808 140.856C826.024 132.152 838.568 127.8 853.928 127.8C868.52 127.8 880.296 132.152 889.512 140.6C898.472 149.304 903.08 162.104 903.08 179.512V184.888H871.592V179.768C871.592 171.832 869.8 165.944 866.472 162.104C863.144 158.264 858.792 156.216 853.16 156.216C846.504 156.216 841.64 158.52 838.568 163.128C835.496 167.736 834.216 174.648 834.216 183.864V254.776C834.216 272.184 840.36 280.632 853.16 280.632C858.792 280.632 863.144 278.84 866.472 274.744C869.8 270.904 871.592 265.016 871.592 257.336V252.728H902.824V257.592C902.824 274.744 897.96 287.544 888.488 296.248C879.016 304.952 866.984 309.048 852.136 309.048C836.776 309.048 824.744 304.952 816.04 296.248ZM995.438 272.696H954.222L947.054 307H914.286L959.598 130.36H990.318L1035.37 307H1002.61L995.438 272.696ZM989.806 244.536L974.958 172.856L960.11 244.536H989.806ZM1094.34 236.088H1079.24V307H1047.75V130.36H1095.88C1113.29 130.36 1125.58 134.712 1132.74 142.904C1139.91 151.352 1143.75 164.664 1143.75 183.096C1143.75 194.872 1141.96 204.856 1138.89 212.536C1135.56 220.472 1130.18 226.36 1123.02 230.2L1149.38 307H1116.62L1094.34 236.088ZM1079.24 207.928H1095.62C1101.77 207.928 1106.12 205.88 1108.68 201.784C1110.98 197.688 1112.26 191.288 1112.26 183.096C1112.26 174.904 1110.98 168.76 1108.68 164.664C1106.38 160.568 1102.02 158.52 1095.62 158.52H1079.24V207.928ZM1165.5 130.36H1214.4C1229.25 130.36 1241.02 134.712 1249.98 143.16C1258.94 151.864 1263.55 164.408 1263.55 181.048V256.312C1263.55 272.952 1258.69 285.496 1249.47 294.2C1240 302.904 1227.71 307 1212.86 307H1165.5V130.36ZM1213.63 278.84C1219.52 278.84 1224.13 276.536 1227.2 271.928C1230.27 267.32 1232.06 260.92 1232.06 252.728V186.424C1232.06 177.464 1230.53 170.552 1227.45 165.944C1224.38 161.336 1219.77 158.776 1213.63 158.776H1196.73V278.84H1213.63ZM1290.66 295.48C1282.47 286.52 1278.11 273.464 1278.11 256.568H1307.81C1308.07 265.272 1309.86 271.672 1312.93 275.768C1316 279.864 1320.87 281.912 1327.01 281.912C1333.15 281.912 1337.51 280.12 1340.32 276.28C1343.14 272.696 1344.67 266.552 1344.67 258.36C1344.67 251.704 1342.88 246.328 1339.81 242.232C1336.74 238.136 1331.36 234.552 1323.94 230.968L1311.91 225.592C1300.39 220.472 1292.19 214.328 1287.07 206.648C1281.95 199.224 1279.65 189.24 1279.65 176.44C1279.65 161.592 1283.75 149.816 1292.45 140.856C1301.15 132.152 1312.67 127.544 1327.52 127.544C1341.86 127.544 1353.12 132.152 1361.06 140.856C1368.99 149.56 1373.35 162.36 1373.86 178.744H1344.93C1344.67 170.808 1343.14 164.92 1340.58 160.824C1338.02 156.728 1333.67 154.68 1327.52 154.68C1316 154.68 1310.37 161.592 1310.37 174.904C1310.37 181.048 1311.65 186.168 1314.47 189.752C1317.28 193.336 1322.15 196.664 1328.8 199.48L1340.32 204.6C1352.61 210.232 1361.31 216.888 1366.95 225.08C1372.58 233.272 1375.39 244.28 1375.39 257.848C1375.39 274.232 1371.04 287.032 1362.59 295.736C1353.89 304.696 1341.86 309.048 1326.24 309.048C1310.63 309.048 1298.85 304.696 1290.66 295.48Z" fill="white"/>
<defs>
<clipPath id="clip0_1763_22">
<rect width="445" height="445" fill="white" transform="translate(374)"/>
</clipPath>
</defs>
</svg>
