<svg width="83" height="90" viewBox="0 0 83 90" fill="none" xmlns="http://www.w3.org/2000/svg">
<path d="M82.5954 13.175L75.036 70.6672C74.5218 74.5755 70.9222 77.301 67.0396 76.7867L63.0028 76.2467L55.4692 19.0117C54.8264 14.2034 50.7125 10.5781 45.8529 10.5781C45.4414 10.5781 45.0044 10.6038 44.593 10.6553L28.8828 12.7122L29.7314 6.20701C30.2457 2.29887 33.8197 -0.452332 37.7278 0.0617784L76.4502 5.17862C80.3585 5.69274 83.1097 9.26676 82.5954 13.175ZM60.4842 76.8443L52.9197 19.3527C52.4062 15.4484 48.8247 12.6996 44.92 13.2134L6.20109 18.3076C2.29675 18.8213 -0.451981 22.4029 0.061739 26.3073L7.6259 83.7989C8.13963 87.7032 11.7213 90.452 15.6256 89.9383L54.3447 84.8439C58.2491 84.3301 60.9978 80.7487 60.4842 76.8443Z" fill="white"/>
</svg>
