<svg width="56" height="64" viewBox="0 0 56 64" fill="none" xmlns="http://www.w3.org/2000/svg">
<path d="M10 10H8C6.896 10 6 10.896 6 12V18H10V10Z" fill="white"/>
<path d="M50 12C50 10.896 49.104 10 48 10H46V18H50V12Z" fill="white"/>
<path d="M44 2C44 0.896 43.104 0 42 0H14C12.896 0 12 0.896 12 2V18H44V2Z" fill="white"/>
<path d="M50 20H6C2.691 20 0 22.691 0 26V46C0 49.309 2.691 52 6 52H10V44C8.896 44 8 43.104 8 42C8 40.896 8.896 40 10 40H46C47.104 40 48 40.896 48 42C48 43.104 47.104 44 46 44V52H50C53.309 52 56 49.309 56 46V26C56 22.691 53.309 20 50 20ZM11.41 33.41C11.04 33.79 10.52 34 10 34C9.47 34 8.96 33.79 8.59 33.41C8.21 33.04 8 32.53 8 32C8 31.47 8.21 30.96 8.59 30.59C9.33 29.84 10.67 29.84 11.41 30.59C11.79 30.96 12 31.47 12 32C12 32.53 11.79 33.04 11.41 33.41ZM17.41 33.41C17.04 33.79 16.52 34 16 34C15.47 34 14.96 33.79 14.59 33.41C14.21 33.04 14 32.53 14 32C14 31.47 14.21 30.96 14.59 30.59C15.33 29.84 16.67 29.84 17.41 30.59C17.79 30.96 18 31.47 18 32C18 32.53 17.79 33.04 17.41 33.41ZM47.41 33.41C47.04 33.79 46.53 34 46 34C45.47 34 44.96 33.79 44.58 33.41C44.21 33.04 44 32.53 44 32C44 31.47 44.21 30.96 44.58 30.59C45.33 29.84 46.66 29.84 47.41 30.59C47.79 30.96 48 31.47 48 32C48 32.53 47.79 33.04 47.41 33.41Z" fill="white"/>
<path d="M12 62C12 63.104 12.896 64 14 64H42C43.104 64 44 63.104 44 62V42H12V62Z" fill="white"/>
</svg>
